<svg xmlns="http://www.w3.org/2000/svg" xmlns:xlink="http://www.w3.org/1999/xlink" width="793" zoomAndPan="magnify" viewBox="0 0 595.5 842.249979" height="1122" preserveAspectRatio="xMidYMid meet" version="1.0"><defs><clipPath id="95ed09451f"><path d="M 0.015625 0.28125 L 594.984375 0.28125 L 594.984375 178 L 0.015625 178 Z M 0.015625 0.28125 " clip-rule="nonzero"/></clipPath><clipPath id="6ef6c84bd9"><path d="M 0.015625 0.28125 L 594.984375 0.28125 L 594.984375 133 L 0.015625 133 Z M 0.015625 0.28125 " clip-rule="nonzero"/></clipPath></defs><g clip-path="url(#95ed09451f)"><path fill="#0097b2" d="M 17.054688 122.3125 C 26.769531 135.421875 29.765625 152.195312 36.636719 166.996094 C 39.066406 172.230469 43.027344 177.890625 48.804688 177.96875 C 51.839844 178.007812 54.632812 176.441406 57.226562 174.882812 C 74.058594 164.796875 89.859375 153.007812 104.328125 139.765625 C 110.984375 133.667969 117.613281 127.109375 126.042969 123.855469 C 134.472656 120.605469 145.371094 121.6875 150.730469 128.949219 C 155.160156 134.960938 154.789062 143.5625 159.363281 149.464844 C 165.277344 157.101562 177.179688 157.117188 185.960938 153.085938 C 194.746094 149.054688 201.742188 141.980469 209.976562 136.925781 C 219.277344 131.21875 229.949219 128.214844 240.464844 125.269531 C 249.578125 122.71875 260.140625 120.394531 267.855469 125.859375 C 272.890625 129.417969 275.378906 135.460938 278.585938 140.722656 C 291.484375 161.890625 320.382812 171.699219 343.539062 162.761719 C 348.777344 160.742188 353.820312 157.773438 357.21875 153.320312 C 361.003906 148.351562 362.410156 142.035156 364.429688 136.125 C 368.398438 124.558594 375.324219 113.695312 385.441406 106.800781 C 395.554688 99.90625 409.09375 97.480469 420.382812 102.222656 C 433.199219 107.605469 442.78125 121.476562 456.683594 121.40625 C 476.839844 121.296875 487.199219 92.1875 507.34375 91.421875 C 522.964844 90.828125 533.058594 107.378906 538.800781 121.898438 C 544.539062 136.410156 552.019531 153.476562 567.398438 156.257812 C 576.214844 157.84375 586.023438 154.285156 595.050781 152.515625 L 595.050781 0.257812 L -0.105469 0.257812 L -0.105469 109.46875 C 6.601562 112.003906 12.84375 116.636719 17.054688 122.3125 Z M 17.054688 122.3125 " fill-opacity="1" fill-rule="nonzero"/></g><g clip-path="url(#6ef6c84bd9)"><path fill="#000000" d="M -0.105469 0.257812 L -0.105469 71.699219 C 8.921875 69.929688 18.730469 66.367188 27.546875 67.957031 C 42.933594 70.734375 50.40625 87.804688 56.144531 102.316406 C 61.886719 116.828125 71.980469 133.386719 87.601562 132.792969 C 107.738281 132.019531 118.097656 102.917969 138.261719 102.808594 C 152.15625 102.730469 161.746094 116.605469 174.558594 121.992188 C 185.851562 126.734375 199.386719 124.308594 209.503906 117.414062 C 219.621094 110.519531 226.554688 99.65625 230.511719 88.085938 C 232.535156 82.179688 233.941406 75.863281 237.726562 70.890625 C 241.125 66.429688 246.167969 63.472656 251.40625 61.453125 C 274.5625 52.515625 303.460938 62.324219 316.359375 83.492188 C 319.566406 88.753906 322.054688 94.792969 327.085938 98.355469 C 334.804688 103.820312 345.367188 101.496094 354.480469 98.941406 C 364.996094 96 375.660156 92.996094 384.96875 87.289062 C 393.210938 82.234375 400.199219 75.164062 408.980469 71.128906 C 417.765625 67.097656 429.667969 67.113281 435.582031 74.75 C 440.152344 80.660156 439.785156 89.253906 444.214844 95.265625 C 449.574219 102.527344 460.472656 103.605469 468.902344 100.359375 C 477.332031 97.109375 483.953125 90.542969 490.617188 84.449219 C 505.085938 71.207031 520.886719 59.417969 537.714844 49.332031 C 540.3125 47.773438 543.113281 46.207031 546.140625 46.246094 C 551.917969 46.324219 555.878906 51.992188 558.308594 57.21875 C 565.171875 72.019531 568.167969 88.792969 577.890625 101.902344 C 582.09375 107.574219 588.34375 112.207031 595.042969 114.746094 L 595.042969 0.257812 Z M -0.105469 0.257812 " fill-opacity="1" fill-rule="nonzero"/></g></svg>